<svg xmlns="http://www.w3.org/2000/svg" viewBox="0 0 100 100" aria-hidden="true">
  <title>Original obstacle silhouettes</title>
  <defs>
    <path id="shape-asteroid-01" d="M8 33 18 14 39 7 61 12 82 25 93 45 87 68 70 89 43 94 20 82 6 61Z"/>
    <path id="shape-asteroid-02" d="M12 20 31 7 50 13 65 5 88 17 83 37 95 53 80 72 69 94 48 86 27 95 18 76 5 61 14 43Z"/>
    <path id="shape-asteroid-03" d="M7 42 17 18 36 11 54 4 73 16 94 29 88 49 96 67 73 82 59 96 37 87 16 92 11 70 3 57Z"/>
    <path id="shape-debris-01" d="M3 44 12 31 23 28 18 16 35 19 45 7 55 20 71 13 77 28 94 32 87 47 97 58 79 65 83 82 65 78 54 94 43 80 25 90 23 72 7 67 14 55Z"/>
    <path id="shape-debris-02" d="M5 24 20 27 27 11 42 22 55 5 63 22 82 16 78 35 95 43 82 55 92 72 73 73 65 94 50 80 34 92 29 75 10 80 16 61 3 49 19 40Z"/>
    <path id="shape-debris-03" d="M4 39 16 31 9 18 28 21 35 7 48 19 61 6 68 22 86 16 82 34 97 45 84 56 94 70 75 72 68 91 53 81 39 96 31 78 13 84 18 64 3 55 17 47Z"/>
    <clipPath id="clip-asteroid-01"><use href="#shape-asteroid-01"/></clipPath>
    <clipPath id="clip-asteroid-02"><use href="#shape-asteroid-02"/></clipPath>
    <clipPath id="clip-asteroid-03"><use href="#shape-asteroid-03"/></clipPath>
    <clipPath id="clip-debris-01"><use href="#shape-debris-01"/></clipPath>
    <clipPath id="clip-debris-02"><use href="#shape-debris-02"/></clipPath>
    <clipPath id="clip-debris-03"><use href="#shape-debris-03"/></clipPath>
    <symbol id="asteroid-01" viewBox="0 0 100 100"><use href="#shape-asteroid-01"/></symbol>
    <symbol id="asteroid-02" viewBox="0 0 100 100"><use href="#shape-asteroid-02"/></symbol>
    <symbol id="asteroid-03" viewBox="0 0 100 100"><use href="#shape-asteroid-03"/></symbol>
    <symbol id="debris-01" viewBox="0 0 100 100"><use href="#shape-debris-01"/></symbol>
    <symbol id="debris-02" viewBox="0 0 100 100"><use href="#shape-debris-02"/></symbol>
    <symbol id="debris-03" viewBox="0 0 100 100"><use href="#shape-debris-03"/></symbol>
  </defs>
</svg>
